<svg width="581" height="247" viewBox="0 0 581 247" fill="none" xmlns="http://www.w3.org/2000/svg">
<path d="M171.8 193.4C180.333 198.467 190.4 201 202 201C209.467 201 216.333 199.933 222.6 197.8C228.867 195.533 234.267 192.4 238.8 188.4C243.467 184.4 246.867 179.733 249 174.4L225 163C222.867 166.733 219.867 169.667 216 171.8C212.267 173.933 207.733 175 202.4 175C196.533 175 191.533 173.733 187.4 171.2C183.267 168.533 179.783 165.167 177.783 160.5C175.783 155.833 174.283 150 174.283 143.8C174.283 136.5 175.416 130.533 177.283 125.6C179.15 120.667 182.867 117.333 186.6 114.8C190.333 112.267 194.8 111 200 111C205.333 111 209.8 112.333 213.4 115C217.133 117.533 220.5 122 221.5 128.5H252C250 115.5 242.924 106 239.8 102.6C235.267 97.6667 229.667 93.8667 223 91.2C216.333 88.4 208.667 87 200 87C189.6 87 180.267 89.4667 172 94.4C163.733 99.3333 157.133 106.067 152.2 114.6C147.4 123.133 145 132.867 145 143.8C145 154.333 147.333 163.933 152 172.6C156.667 181.267 163.267 188.2 171.8 193.4Z" fill="#00ABB4"/>
<path d="M0 15H85.7389C97.2857 15 108.283 19.9286 115.968 28.547V28.547C129.663 43.9063 129.663 67.0937 115.968 82.453V82.453C108.283 91.0714 97.2857 96 85.7389 96H38.0952" stroke="#00ACB3" stroke-width="30"/>
<path d="M269 102H324.885C339.09 102 352.333 109.181 360.084 121.086V121.086C369.152 135.016 369.152 152.984 360.084 166.914V166.914C352.333 178.819 339.09 186 324.885 186H302" stroke="#00ABB4" stroke-width="30"/>
<path d="M15 59L15 201" stroke="#009199" stroke-width="30"/>
<path d="M282 141L282 247" stroke="#009199" stroke-width="27"/>
<path d="M420 22L420 194" stroke="#00ABB4" stroke-width="27"/>
<path d="M523 25V201" stroke="#00ABB4" stroke-width="27"/>
<path d="M392 16L447 16" stroke="#00ABB4" stroke-width="27"/>
<path d="M464 16L581 16" stroke="#00ABB4" stroke-width="27"/>
<path d="M392 187.5H447" stroke="#009199" stroke-width="27"/>
<path d="M124.082 86.3318C128.371 71.2281 123.019 53.1106 103.5 37C115.5 50.5 110.5 65 107 69.5C100.5 80 88 81.5 84 81H38V111H81H81.0014C91.0025 111 117.075 111 124.082 86.3318Z" fill="#009199"/>
<path d="M330.093 201C334 201 359.936 197.599 366.5 179C369.676 170 368.041 157.799 365 150.5C361.959 143.201 353.773 130.909 344 125C357.5 141.5 349.5 158.5 344 163C336 170.5 327.5 171 325.441 171H302V201H330.093Z" fill="#009199"/>
<path d="M81.8148 116.598L153.5 201L116 201L45 117L81.8148 116.598Z" fill="#009199"/>
<path d="M151.5 171.5C145 151 163 120.5 187 114.5C172.5 124 172 147 177.5 159.5C184.5 172.5 193.5 175 203 175C203 175 218 175.5 225 163L249 174.5C241 192 225.914 199.5 204.457 201C183 202.5 163 193.5 151.5 171.5Z" fill="#009199"/>
<path d="M252.6 146.5V138V130.4H177.283V152.4H252.6V146.5Z" fill="#009199"/>
<path d="M406.5 62C406.5 50.8276 410.883 39.3448 420.5 30.5C430.117 21.6552 447 20 447 20V29.5233H433.5V47.5V174.5H406.5V62Z" fill="#009199"/>
<path d="M509.5 68.5C509.5 55.0405 512.385 40.4626 528 28.0001C543.615 15.5376 581 18 581 18V29.4505H536.5V51.5V201L509.5 201V68.5Z" fill="#009199"/>
</svg>
